<?xml version="1.0"?>
<svg width="1280" height="1280" xmlns="http://www.w3.org/2000/svg" xmlns:svg="http://www.w3.org/2000/svg" preserveAspectRatio="xMidYMid meet" version="1.0">
 <metadata>Created by potrace 1.15, written by Peter Selinger 2001-2017</metadata>
 <g class="layer">
  <title>Layer 1</title>
  <g fill="#000000" id="svg_1">
   <path d="m379.61,712.57c-1.59,-2.37 -6.82,-1.58 -8.1,1.23c-0.89,2 1.43,3.82 4.33,3.38c3.12,-0.47 5,-2.75 3.78,-4.61z" id="svg_17"/>
   <path d="m376.71,719.53c-0.57,-1.12 -2.9,-1.73 -4.94,-1.31c-2.12,0.43 -3.92,1.87 -4.11,3.28c-0.13,0.97 0.06,1.39 0.91,1.97c1.97,1.36 6.4,0.45 7.85,-1.63c0.42,-0.62 0.58,-1.79 0.29,-2.32z" id="svg_18"/>
   <path d="m370.72,753.31c-1.59,-2.37 -6.82,-1.58 -8.1,1.23c-0.89,2 1.43,3.82 4.33,3.38c3.12,-0.47 5,-2.75 3.78,-4.61z" id="svg_19"/>
   <path d="m377.11,706.18c-0.23,-0.81 -0.92,-1.41 -1.86,-1.63c-2.4,-0.55 -5.54,1.75 -5.89,4.33c-0.1,0.74 -0.04,1 0.42,1.66c0.51,0.73 0.61,0.78 1.63,0.92c1.82,0.23 3.91,-0.85 5.06,-2.61c0.48,-0.73 0.81,-2.1 0.64,-2.67z" id="svg_20"/>
   <path d="m367.82,760.27c-0.57,-1.12 -2.9,-1.73 -4.94,-1.31c-2.12,0.43 -3.92,1.87 -4.11,3.28c-0.13,0.97 0.06,1.39 0.91,1.97c1.97,1.36 6.4,0.45 7.85,-1.63c0.42,-0.62 0.58,-1.79 0.29,-2.32z" id="svg_21"/>
   <path d="m368.22,746.93c-0.23,-0.81 -0.92,-1.41 -1.86,-1.63c-2.4,-0.55 -5.54,1.75 -5.89,4.33c-0.1,0.74 -0.04,1 0.42,1.66c0.51,0.73 0.61,0.78 1.63,0.92c1.82,0.23 3.91,-0.85 5.06,-2.61c0.48,-0.73 0.81,-2.1 0.64,-2.67z" id="svg_22"/>
   <path d="m370.11,712.87c-0.53,-1.28 -1.18,-1.61 -3.74,-1.85c-1.47,-0.14 -3.02,-0.43 -4.76,-0.89l-2.54,-0.66l-0.93,0.33c-1.25,0.42 -2.14,1.3 -2.4,2.36c-0.31,1.19 -0.2,1.64 0.69,2.98c1.16,1.74 1.64,2.85 1.87,4.37c0.41,2.74 0.82,3.47 2.33,4.19c0.8,0.39 2.24,0.45 3.08,0.15c1.51,-0.53 2.9,-2.31 5.43,-6.9c1.22,-2.22 1.41,-3.02 0.97,-4.08z" id="svg_23"/>
   <path d="m370.01,703.64c-0.48,-1.37 -2.18,-1.92 -4,-1.31c-1.86,0.66 -3.68,2.64 -3.9,4.29c-0.09,0.71 0.43,1.85 1.02,2.25c2.18,1.5 6.54,-0.99 6.95,-3.92c0.06,-0.46 0.03,-1.05 -0.07,-1.31z" id="svg_24"/>
   <path d="m361.22,753.62c-0.53,-1.28 -1.18,-1.61 -3.74,-1.85c-1.47,-0.14 -3.02,-0.43 -4.76,-0.89l-2.54,-0.66l-0.93,0.33c-1.25,0.42 -2.14,1.3 -2.4,2.36c-0.31,1.19 -0.2,1.64 0.69,2.98c1.16,1.74 1.64,2.85 1.87,4.37c0.41,2.74 0.82,3.47 2.33,4.19c0.8,0.39 2.24,0.45 3.08,0.15c1.51,-0.53 2.9,-2.31 5.43,-6.9c1.22,-2.22 1.41,-3.02 0.97,-4.08z" id="svg_25"/>
   <path d="m361.12,744.39c-0.48,-1.37 -2.18,-1.92 -4,-1.31c-1.86,0.66 -3.68,2.64 -3.9,4.29c-0.09,0.71 0.43,1.85 1.02,2.25c2.18,1.5 6.54,-0.99 6.95,-3.92c0.06,-0.46 0.03,-1.05 -0.07,-1.31z" id="svg_26"/>
   <path d="m314.84,749.89c-1.59,-2.37 -6.82,-1.58 -8.1,1.23c-0.89,2 1.43,3.82 4.33,3.38c3.12,-0.47 5,-2.75 3.78,-4.61z" id="svg_37"/>
   <path d="m311.94,756.85c-0.57,-1.12 -2.9,-1.73 -4.94,-1.31c-2.12,0.43 -3.92,1.87 -4.11,3.28c-0.13,0.97 0.06,1.39 0.91,1.97c1.97,1.36 6.4,0.45 7.85,-1.63c0.42,-0.62 0.58,-1.79 0.29,-2.32z" id="svg_38"/>
   <path d="m312.33,743.51c-0.23,-0.81 -0.92,-1.41 -1.86,-1.63c-2.4,-0.55 -5.54,1.75 -5.89,4.33c-0.1,0.74 -0.04,1 0.42,1.66c0.51,0.73 0.61,0.78 1.63,0.92c1.82,0.23 3.91,-0.85 5.06,-2.61c0.48,-0.73 0.81,-2.1 0.64,-2.67z" id="svg_39"/>
   <path d="m302.09,791.26c-1.59,-2.37 -6.82,-1.58 -8.1,1.23c-0.89,2 1.43,3.82 4.33,3.38c3.12,-0.47 5,-2.75 3.78,-4.61z" id="svg_40"/>
   <path d="m299.18,798.21c-0.57,-1.12 -2.9,-1.73 -4.94,-1.31c-2.12,0.43 -3.92,1.87 -4.11,3.28c-0.13,0.97 0.06,1.39 0.91,1.97c1.97,1.36 6.4,0.45 7.85,-1.63c0.42,-0.62 0.58,-1.79 0.29,-2.32z" id="svg_41"/>
   <path d="m305.33,750.2c-0.53,-1.28 -1.18,-1.61 -3.74,-1.85c-1.47,-0.14 -3.02,-0.43 -4.76,-0.89l-2.54,-0.66l-0.93,0.33c-1.25,0.42 -2.14,1.3 -2.4,2.36c-0.31,1.19 -0.2,1.64 0.69,2.98c1.16,1.74 1.64,2.85 1.87,4.37c0.41,2.74 0.82,3.47 2.33,4.19c0.8,0.39 2.24,0.45 3.08,0.15c1.51,-0.53 2.9,-2.31 5.43,-6.9c1.22,-2.22 1.41,-3.02 0.97,-4.08z" id="svg_42"/>
   <path d="m299.58,784.87c-0.23,-0.81 -0.92,-1.41 -1.86,-1.63c-2.4,-0.55 -5.54,1.75 -5.89,4.33c-0.1,0.74 -0.04,1 0.42,1.66c0.51,0.73 0.61,0.78 1.63,0.92c1.82,0.23 3.91,-0.85 5.06,-2.61c0.48,-0.73 0.81,-2.1 0.64,-2.67z" id="svg_43"/>
   <path d="m305.23,740.97c-0.48,-1.37 -2.18,-1.92 -4,-1.31c-1.86,0.66 -3.68,2.64 -3.9,4.29c-0.09,0.71 0.43,1.85 1.02,2.25c2.18,1.5 6.54,-0.99 6.95,-3.92c0.06,-0.46 0.03,-1.05 -0.07,-1.31z" id="svg_44"/>
   <path d="m292.58,791.56c-0.53,-1.28 -1.18,-1.61 -3.74,-1.85c-1.47,-0.14 -3.02,-0.43 -4.76,-0.89l-2.54,-0.66l-0.93,0.33c-1.25,0.42 -2.14,1.3 -2.4,2.36c-0.31,1.19 -0.2,1.64 0.69,2.98c1.16,1.74 1.64,2.85 1.87,4.37c0.41,2.74 0.82,3.47 2.33,4.19c0.8,0.39 2.24,0.45 3.08,0.15c1.51,-0.53 2.9,-2.31 5.43,-6.9c1.22,-2.22 1.41,-3.02 0.97,-4.08z" id="svg_45"/>
   <path d="m292.48,782.33c-0.48,-1.37 -2.18,-1.92 -4,-1.31c-1.86,0.66 -3.68,2.64 -3.9,4.29c-0.09,0.71 0.43,1.85 1.02,2.25c2.18,1.5 6.54,-0.99 6.95,-3.92c0.06,-0.46 0.03,-1.05 -0.07,-1.31z" id="svg_46"/>
  </g>
 </g>
</svg>